<?xml version="1.0" encoding="iso-8859-1"?>
<!-- Uploaded to: SVG Repo, www.svgrepo.com, Generator: SVG Repo Mixer Tools -->
<svg fill="#000000" height="800px" width="800px" version="1.1" id="Layer_1" xmlns="http://www.w3.org/2000/svg" xmlns:xlink="http://www.w3.org/1999/xlink" 
	 viewBox="0 0 512 512" xml:space="preserve">
<g>
	<g>
		<g>
			<path d="M435.2,238.933H76.8c-4.71,0-8.533,3.823-8.533,8.533S72.09,256,76.8,256h358.4c4.71,0,8.533-3.823,8.533-8.533
				S439.91,238.933,435.2,238.933z"/>
			<path d="M452.267,68.267H59.733c-13.158,0-25.6,12.442-25.6,25.6V281.6c0,14.114,11.486,25.6,25.6,25.6H153.6v42.667
				c0,14.114,11.486,25.6,25.6,25.6h153.6c13.875,0,25.6-11.725,25.6-25.6V307.2h93.867c14.114,0,25.6-11.486,25.6-25.6V93.867
				C477.867,80.708,465.425,68.267,452.267,68.267z M460.8,281.6c0,4.702-3.831,8.533-8.533,8.533h-102.4
				c-4.71,0-8.533,3.823-8.533,8.533v51.2c0,4.548-3.985,8.533-8.533,8.533H179.2c-4.702,0-8.533-3.831-8.533-8.533v-51.2
				c0-4.71-3.823-8.533-8.533-8.533h-102.4c-4.702,0-8.533-3.831-8.533-8.533V93.867c0-3.831,4.702-8.533,8.533-8.533h392.533
				c3.831,0,8.533,4.702,8.533,8.533V281.6z"/>
			<path d="M469.333,34.133H42.667C19.14,34.133,0,53.274,0,76.8v358.4c0,23.526,19.14,42.667,42.667,42.667h426.667
				c23.526,0,42.667-19.14,42.667-42.667V76.8C512,53.274,492.86,34.133,469.333,34.133z M494.933,435.2
				c0,14.114-11.486,25.6-25.6,25.6H42.667c-14.114,0-25.6-11.486-25.6-25.6V76.8c0-14.114,11.486-25.6,25.6-25.6h426.667
				c14.114,0,25.6,11.486,25.6,25.6V435.2z"/>
		</g>
	</g>
</g>
</svg>